<mxfile host="app.diagrams.net" modified="2023-09-06T15:10:00.562Z" agent="Mozilla/5.0 (Windows NT 10.0; Win64; x64; rv:109.0) Gecko/20100101 Firefox/117.0" version="21.6.9" etag="QYz4sxjNMa8Fn0cIc04K" type="github">
  <diagram name="PÃ¡gina-1" id="5gENOG_md-JwLs7dWk79">
    <mxGraphModel>
      <root>
        <mxCell id="0" />
        <mxCell id="1" parent="0" />
      </root>
    </mxGraphModel>
  </diagram>
</mxfile>
